# Blender v2.79 (sub 0) OBJ File: ''
# www.blender.org
v 3.576400 0.147788 -3.946806
v 3.576400 4.682900 -2.785767
v 3.576400 5.103003 -2.878252
v 3.576400 0.000503 -4.209513
v -3.576400 1.260640 -0.388125
v -3.576400 4.877999 -2.514992
v -3.642400 4.877999 -2.514992
v -3.642400 1.260640 -0.388125
v -3.799600 1.043541 -0.753900
v -3.799600 4.682900 -2.785767
v -3.733600 4.682900 -2.785767
v -3.733600 1.043541 -0.753900
v -3.799600 0.147788 -3.946806
v -3.733600 0.147788 -3.946806
v -3.576400 0.249784 -1.187806
v -3.576400 0.147788 -3.946806
v -3.642400 0.147788 -3.946806
v -3.642400 0.249784 -1.187806
v -3.576400 1.260640 -0.638286
v -3.642400 1.043541 -0.753900
v -3.576400 1.043541 -0.753900
v -1.449279 0.000498 0.461650
v -1.449279 -0.228833 0.400201
v -1.449279 -0.396715 0.232318
v -1.449279 -0.458164 0.002987
v -1.449279 -0.396714 -0.226344
v -1.449279 -0.228832 -0.394226
v -1.449279 0.000499 -0.455675
v -1.449279 0.229830 -0.394226
v -1.449279 0.397712 -0.226344
v -1.449279 0.459161 0.002987
v -1.449279 0.397711 0.232319
v -1.449279 0.229829 0.400201
v -2.715640 -0.377001 0.002987
v -2.715640 -0.326426 -0.185763
v -2.715640 -0.188251 -0.323937
v -2.715640 0.000499 -0.374513
v -2.715640 0.189249 -0.323937
v -2.715640 0.327424 -0.185763
v -2.715640 0.377999 0.002987
v -2.715640 0.327422 0.191737
v -2.715640 0.189248 0.329912
v -2.715640 0.000498 0.380487
v -2.715640 -0.188252 0.329912
v -2.715640 -0.326427 0.191737
v -2.715640 0.440286 0.002987
v -2.715640 0.381365 0.222881
v -2.715640 0.220392 0.383854
v -2.715640 0.000498 0.442775
v -2.715640 -0.219396 0.383854
v -2.715640 -0.380369 0.222881
v -2.715640 -0.439289 0.002987
v -2.715640 -0.380368 -0.216907
v -2.715640 -0.219395 -0.377880
v -2.715640 0.000499 -0.436800
v -2.715640 0.220393 -0.377880
v -2.715640 0.381366 -0.216906
v -2.955640 0.440286 0.002987
v -2.955640 0.381365 0.222881
v -2.955640 0.220392 0.383854
v -2.955640 0.000498 0.442775
v -2.955640 -0.219396 0.383854
v -2.955640 -0.380369 0.222881
v -2.955640 -0.439289 0.002987
v -2.955640 -0.380368 -0.216907
v -2.955640 -0.219395 -0.377880
v -2.955640 0.000499 -0.436800
v -2.955640 0.220393 -0.377880
v -2.955640 0.381366 -0.216906
v -2.955640 0.492313 0.002987
v -2.955640 0.426422 0.248894
v -2.955640 0.246405 0.428911
v -2.955640 0.000498 0.494802
v -2.955640 -0.245409 0.428911
v -2.955640 -0.425425 0.248894
v -2.955640 -0.491315 0.002987
v -2.955640 -0.425425 -0.242920
v -2.955640 -0.245408 -0.422937
v -2.955640 0.000499 -0.488827
v -2.955640 0.246406 -0.422936
v -2.955640 0.426423 -0.242920
v -3.251400 0.492313 0.002987
v -3.251400 0.426422 0.248894
v -3.251400 0.246405 0.428911
v -3.251400 0.000498 0.494802
v -3.251400 -0.245409 0.428911
v -3.251400 -0.425425 0.248894
v -3.251400 -0.491315 0.002987
v -3.251400 -0.425425 -0.242920
v -3.251400 -0.245408 -0.422937
v -3.251400 0.000499 -0.488827
v -3.251400 0.246406 -0.422936
v -3.251400 0.426423 -0.242920
v -3.576400 0.000499 -1.269513
v -3.251400 -0.049501 -0.664200
v -2.608140 -0.049501 -0.473575
v -2.608140 -0.049502 0.479550
v -3.251400 -0.049502 0.670175
v -2.608140 0.050499 -0.473575
v -3.251400 0.050499 -0.664200
v -3.251400 0.050498 0.670175
v -2.608140 0.050498 0.479550
v -2.456140 -0.049502 0.286542
v -2.456140 0.050498 0.286542
v -2.456140 0.050499 -0.280567
v -2.456140 -0.049501 -0.280567
v -4.034599 0.000499 -0.392489
v -4.114600 0.000499 -0.248140
v -4.114600 0.190777 -0.123863
v -4.034599 0.423339 -0.196777
v -4.034599 0.000499 -0.742651
v -4.034599 0.656064 -0.373383
v -3.576400 1.260639 0.644261
v -3.576400 1.043539 0.759875
v -3.576400 0.249782 1.193781
v -3.576400 0.000498 1.275487
v -3.251400 0.000498 0.951000
v -3.251400 0.926702 0.480736
v -3.576400 0.000503 -4.209513
v -3.576400 5.103003 -2.878252
v -3.576400 4.682900 -2.785767
v -3.799600 5.103003 -2.878252
v -3.799600 0.000503 -4.209513
v -3.576400 -0.146781 -3.946806
v -3.576400 -4.681901 -2.785778
v -3.576400 -5.102001 -2.878263
v -3.576400 -0.248786 -1.187806
v -4.034599 -0.422341 -0.196777
v -4.114600 -0.189779 -0.123863
v -4.034599 -0.655066 -0.373384
v -4.034599 0.000498 0.398464
v -4.034599 0.423337 0.202752
v -4.114600 0.190776 0.129838
v -4.114600 0.000498 0.254115
v -4.034599 -0.655066 0.379358
v -3.799600 -1.259644 0.644260
v -3.799600 -1.042544 0.759875
v -3.799600 -0.248787 1.193781
v -3.799600 0.000498 1.275487
v -4.034599 0.000498 0.748626
v -4.034599 0.656063 0.379358
v -4.114600 -0.189780 0.129838
v -4.034599 -0.422342 0.202752
v -3.642400 1.043539 0.759875
v -3.642400 0.249782 1.193781
v -3.576400 -1.259644 0.644260
v -3.251400 -0.925705 0.480736
v -3.576400 -0.248787 1.193781
v -3.576400 -1.042544 0.759875
v -3.251400 0.926703 -0.474761
v -3.576400 1.260639 0.394100
v -3.251400 0.000498 0.766487
v -3.251400 0.722589 0.387751
v -3.156399 0.000498 0.363207
v -3.156399 0.432590 0.184519
v -3.576400 -1.042542 -0.753901
v -3.642400 -1.042542 -0.753901
v -3.642400 -0.248786 -1.187806
v -3.251400 0.000499 -0.945025
v -3.642400 -0.248787 1.193781
v -3.642400 -1.042544 0.759875
v -3.576400 -1.259642 -0.388125
v -3.576400 -1.259642 -0.638286
v -3.251400 -0.925705 -0.474762
v -3.576400 -1.259644 0.394099
v -3.251400 -0.721593 0.387751
v -3.156399 -0.431593 0.184519
v -3.251400 0.722591 -0.381777
v -3.251400 0.000499 -0.760513
v -3.251400 -0.721593 -0.381777
v -3.799600 1.260640 -0.638286
v -3.799600 0.249784 -1.187806
v -3.799600 0.000499 -1.269513
v -3.156399 0.432590 -0.178544
v -3.156399 0.000499 -0.357232
v -3.156399 -0.431592 -0.178545
v -3.576400 -4.876997 -2.515004
v -3.576400 -4.877007 2.520967
v -3.576400 -4.877007 2.725127
v -3.576400 -5.102005 2.884226
v -3.642400 -1.259642 -0.388125
v -3.642399 -4.876997 -2.515004
v -3.799600 -1.042542 -0.753901
v -3.733600 -1.042542 -0.753901
v -3.733600 -4.681901 -2.785778
v -3.799600 -4.681901 -2.785778
v -3.733600 -0.146781 -3.946806
v -3.799600 -0.146781 -3.946806
v -3.799600 -5.102001 -2.878263
v -3.576400 5.102993 2.884238
v -3.576400 4.877995 2.520978
v -3.642400 1.260639 0.394100
v -3.642400 4.877995 2.520978
v -3.799600 1.043539 0.759875
v -3.733600 1.043539 0.759875
v -3.733600 4.682898 2.791753
v -3.799600 4.682898 2.791753
v -3.733600 0.147778 3.952781
v -3.799600 0.147778 3.952781
v -3.642400 0.147778 3.952781
v -3.576400 0.147778 3.952781
v -3.576400 4.682898 2.791753
v -3.576400 0.000493 4.215487
v -3.799600 0.000493 4.215487
v -3.799600 5.102993 2.884238
v -3.576400 -0.146791 3.952781
v -3.642399 -4.877007 2.520967
v -3.642400 -1.259644 0.394099
v -3.799600 -4.681903 2.791742
v -3.733600 -4.681903 2.791742
v -3.733600 -1.042544 0.759875
v -3.799600 -0.146791 3.952781
v -3.733600 -0.146791 3.952781
v -3.576400 -4.681903 2.791742
v -3.799600 -5.102005 2.884226
v -3.799600 -4.877007 2.520967
v -3.799600 -4.876997 -2.515004
v -3.799600 -0.248786 -1.187806
v -3.733600 -0.248786 -1.187806
v -3.733600 -0.248787 1.193781
v -3.799600 1.260639 0.644261
v -3.799600 1.260639 0.394100
v -3.799600 1.260640 -0.388125
v -3.799600 4.877999 -2.514992
v -3.799600 0.249782 1.193781
v -3.799600 4.877995 2.520978
v -3.799600 -1.259642 -0.388125
v -3.799600 -1.259644 0.394099
v -3.799600 -1.259642 -0.638286
v -3.642400 0.000493 4.102987
v -3.642400 -5.024502 2.843139
v -3.642399 -4.681903 2.791742
v -3.642399 -0.146791 3.952781
v 3.576400 1.260640 -0.388125
v 3.642400 1.260640 -0.388125
v 3.642400 4.877999 -2.514992
v 3.576400 4.877999 -2.514992
v 3.799601 1.043541 -0.753900
v 3.733600 1.043541 -0.753900
v 3.733600 4.682900 -2.785767
v 3.799601 4.682900 -2.785767
v 3.733600 0.147788 -3.946806
v 3.799601 0.147788 -3.946806
v 3.576400 0.249784 -1.187806
v 3.642400 0.249784 -1.187806
v 3.642400 0.147788 -3.946806
v 3.576400 1.260640 -0.638286
v 3.576400 1.043541 -0.753900
v 3.642400 1.043541 -0.753900
v 1.449280 0.000498 0.461650
v 1.449280 0.229829 0.400201
v 1.449280 0.397711 0.232319
v 1.449280 0.459161 0.002987
v 1.449280 0.397712 -0.226344
v 1.449280 0.229830 -0.394226
v 1.449280 0.000499 -0.455675
v 1.449280 -0.228832 -0.394226
v 1.449280 -0.396714 -0.226344
v 1.449280 -0.458164 0.002987
v 1.449280 -0.396715 0.232318
v 1.449280 -0.228833 0.400201
v 2.715640 -0.326426 -0.185763
v 2.715640 -0.377001 0.002987
v 2.715640 -0.188251 -0.323937
v 2.715640 0.000499 -0.374513
v 2.715640 0.189249 -0.323937
v 2.715640 0.327424 -0.185763
v 2.715640 0.377999 0.002987
v 2.715640 0.327422 0.191737
v 2.715640 0.189248 0.329912
v 2.715640 0.000498 0.380487
v 2.715640 -0.188252 0.329912
v 2.715640 -0.326427 0.191737
v 2.715640 0.440286 0.002987
v 2.715640 0.381365 0.222881
v 2.715640 0.220392 0.383854
v 2.715640 0.000498 0.442775
v 2.715640 -0.219396 0.383854
v 2.715640 -0.380369 0.222881
v 2.715640 -0.439289 0.002987
v 2.715640 -0.380368 -0.216907
v 2.715640 -0.219395 -0.377880
v 2.715640 0.000499 -0.436800
v 2.715640 0.220393 -0.377880
v 2.715640 0.381366 -0.216906
v 2.955640 0.440286 0.002987
v 2.955640 0.381365 0.222881
v 2.955640 0.220392 0.383854
v 2.955640 0.000498 0.442775
v 2.955640 -0.219396 0.383854
v 2.955640 -0.380369 0.222881
v 2.955640 -0.439289 0.002987
v 2.955640 -0.380368 -0.216907
v 2.955640 -0.219395 -0.377880
v 2.955640 0.000499 -0.436800
v 2.955640 0.220393 -0.377880
v 2.955640 0.381366 -0.216906
v 2.955640 0.492313 0.002987
v 2.955640 0.426422 0.248894
v 2.955640 0.246405 0.428911
v 2.955640 0.000498 0.494802
v 2.955640 -0.245409 0.428911
v 2.955640 -0.425425 0.248894
v 2.955640 -0.491315 0.002987
v 2.955640 -0.425425 -0.242920
v 2.955640 -0.245408 -0.422937
v 2.955640 0.000499 -0.488827
v 2.955640 0.246406 -0.422936
v 2.955640 0.426423 -0.242920
v 3.251400 0.492313 0.002987
v 3.251400 0.426422 0.248894
v 3.251400 0.246405 0.428911
v 3.251400 0.000498 0.494802
v 3.251400 -0.245409 0.428911
v 3.251400 -0.425425 0.248894
v 3.251400 -0.491315 0.002987
v 3.251400 -0.425425 -0.242920
v 3.251400 -0.245408 -0.422937
v 3.251400 0.000499 -0.488827
v 3.251400 0.246406 -0.422936
v 3.251400 0.426423 -0.242920
v 3.576400 0.000499 -1.269513
v 3.251400 0.926703 -0.474761
v 3.251400 0.926702 0.480736
v 3.576400 1.260639 0.644261
v 3.576400 1.260639 0.394100
v 3.251400 -0.049501 -0.664200
v 3.251400 -0.049502 0.670175
v 2.608140 -0.049502 0.479550
v 2.608140 -0.049501 -0.473575
v 2.608140 0.050499 -0.473575
v 3.251400 0.050499 -0.664200
v 3.251400 0.050498 0.670175
v 2.608140 0.050498 0.479550
v 2.456140 -0.049502 0.286542
v 2.456140 0.050498 0.286542
v 2.456140 0.050499 -0.280567
v 2.456140 -0.049501 -0.280567
v 4.034601 0.000499 -0.392489
v 4.034601 0.423339 -0.196777
v 4.114602 0.190777 -0.123863
v 4.114602 0.000499 -0.248140
v 3.799601 1.260640 -0.638286
v 3.799601 1.260640 -0.388125
v 3.799601 1.260639 0.394100
v 3.799601 1.260639 0.644261
v 4.034601 0.656063 0.379358
v 4.034601 0.656064 -0.373383
v 4.034601 0.000499 -0.742651
v 3.576400 4.877995 2.520978
v 3.576400 5.102993 2.884238
v 3.799601 5.102993 2.884238
v 3.799601 4.877995 2.520978
v 3.799601 4.877999 -2.514992
v 3.799601 5.103003 -2.878252
v 3.799601 0.000503 -4.209513
v 3.576400 -0.248786 -1.187806
v 3.576400 -0.146781 -3.946806
v 4.114602 -0.189779 -0.123863
v 4.034601 -0.422341 -0.196777
v 4.034601 -0.655066 -0.373384
v 4.034601 0.000498 0.398464
v 4.114602 0.000498 0.254115
v 4.114602 0.190776 0.129838
v 4.034601 0.423337 0.202752
v 3.799601 -1.042544 0.759875
v 3.799601 -1.259644 0.644260
v 4.034601 -0.655066 0.379358
v 4.034601 0.000498 0.748626
v 3.799601 0.000498 1.275487
v 3.799601 -0.248787 1.193781
v 4.034601 -0.422342 0.202752
v 4.114602 -0.189780 0.129838
v 3.576400 0.249782 1.193781
v 3.642400 0.249782 1.193781
v 3.642400 1.043539 0.759875
v 3.576400 1.043539 0.759875
v 3.576400 -1.259644 0.644260
v 3.576400 -1.042544 0.759875
v 3.576400 -0.248787 1.193781
v 3.576400 0.000498 1.275487
v 3.251400 0.000498 0.951000
v 3.251400 -0.925705 0.480736
v 3.251400 0.722589 0.387751
v 3.251400 0.000498 0.766487
v 3.156400 0.432590 0.184519
v 3.156400 0.000498 0.363207
v 3.642400 -0.248786 -1.187806
v 3.642400 -1.042542 -0.753901
v 3.576400 -1.042542 -0.753901
v 3.251400 0.000499 -0.945025
v 3.642400 -1.042544 0.759875
v 3.642400 -0.248787 1.193781
v 3.251400 -0.925705 -0.474762
v 3.576400 -1.259642 -0.638286
v 3.576400 -1.259642 -0.388125
v 3.576400 -1.259644 0.394099
v 3.251400 -0.721593 0.387751
v 3.156400 -0.431593 0.184519
v 3.251400 -0.721593 -0.381777
v 3.251400 0.000499 -0.760513
v 3.251400 0.722591 -0.381777
v 3.156400 0.432590 -0.178544
v 3.156400 0.000499 -0.357232
v 3.156400 -0.431592 -0.178545
v 3.576400 -4.876997 -2.515004
v 3.642400 -4.876997 -2.515004
v 3.642400 -1.259642 -0.388125
v 3.799601 -1.042542 -0.753901
v 3.799601 -4.681901 -2.785778
v 3.733601 -4.681901 -2.785778
v 3.733600 -1.042542 -0.753901
v 3.799601 -0.146781 -3.946806
v 3.733600 -0.146781 -3.946806
v 3.576400 -4.876997 -2.719164
v 3.576400 -5.102001 -2.878263
v 3.576400 -5.102005 2.884226
v 3.576400 -4.877007 2.520967
v 3.799601 -5.102001 -2.878263
v 3.576400 -4.681901 -2.785778
v 3.642400 4.877995 2.520978
v 3.642400 1.260639 0.394100
v 3.799601 1.043539 0.759875
v 3.799601 4.682898 2.791753
v 3.733600 4.682898 2.791753
v 3.733600 1.043539 0.759875
v 3.799601 0.147778 3.952781
v 3.733600 0.147778 3.952781
v 3.576400 0.147778 3.952781
v 3.642400 0.147778 3.952781
v 3.799601 0.000493 4.215487
v 3.576400 0.000493 4.215487
v 3.576400 4.682898 2.791753
v 3.576400 -0.146791 3.952781
v 3.799601 -5.102005 2.884226
v 3.799601 -4.681903 2.791742
v 3.799601 -0.146791 3.952781
v 3.576400 -4.681903 2.791742
v 3.642400 -1.259643 0.394099
v 3.642400 -4.877007 2.520967
v 3.733600 -1.042544 0.759875
v 3.733600 -4.681903 2.791742
v 3.733600 -0.146791 3.952781
v 3.799601 -4.876997 -2.515004
v 3.799601 -4.877007 2.520967
v 3.799601 -0.248786 -1.187806
v 3.733600 -0.248786 -1.187806
v 3.733600 -0.248787 1.193781
v 3.799601 -1.259644 0.394099
v 3.799601 -1.259642 -0.388125
v 3.799601 -1.259642 -0.638286
v 3.799601 0.249784 -1.187806
v 3.799601 0.000499 -1.269513
v 3.799601 0.249782 1.193781
v 3.642400 0.000493 4.102987
v 3.642400 -0.146791 3.952781
v 3.642400 -4.681903 2.791742
v 3.642400 -5.024502 2.843139
v 0.000000 0.561129 1.356471
v 0.000000 0.000498 1.467987
v 0.280316 0.486019 1.356471
v 0.485521 0.280813 1.356471
v 0.560631 0.000498 1.356471
v 0.485521 -0.279818 1.356471
v 0.280316 -0.485023 1.356470
v 0.000000 -0.560134 1.356470
v 0.517956 0.897623 1.038899
v 0.000000 1.036409 1.038899
v 0.897126 0.518453 1.038899
v 1.035911 0.000498 1.038899
v 0.897126 -0.517458 1.038898
v 0.517956 -0.896628 1.038898
v 0.000000 -1.035413 1.038898
v 0.000000 1.282166 0.563619
v 0.676742 1.172649 0.563619
v 1.172151 0.677240 0.563619
v 1.353484 0.000498 0.563618
v 1.172151 -0.676244 0.563618
v 0.676742 -1.171653 0.563618
v 0.000000 -1.352986 0.563618
v 0.732500 1.225276 0.002987
v 1.268727 0.732999 0.002987
v 1.268727 -0.732001 0.002987
v 0.732500 -1.268228 0.002987
v 0.000000 -1.464502 0.002987
v 1.172151 0.677241 -0.557644
v 0.676742 1.172650 -0.557644
v 0.676742 -1.171652 -0.557644
v 1.172151 -0.676243 -0.557644
v 0.000000 -1.352984 -0.557644
v 0.000000 1.282167 -0.557644
v 0.517956 0.897625 -1.032924
v 0.000000 1.036410 -1.032924
v 0.897126 0.518455 -1.032924
v 0.517956 -0.896626 -1.032924
v 0.897126 -0.517457 -1.032924
v 0.000000 -1.035412 -1.032924
v 0.280316 1.282166 0.488508
v 0.000000 1.393684 0.002987
v 0.485521 1.282167 0.283303
v 0.560631 1.282167 0.002987
v 0.485521 1.282167 -0.277328
v 0.280316 1.282167 -0.482533
v 1.035911 0.000499 -1.032924
v 0.928578 0.000499 -1.104642
v 0.804172 0.464788 -1.104642
v 0.804172 -0.463790 -1.104642
v 0.464289 -0.803673 -1.104642
v 0.000000 -0.928078 -1.104642
v 0.464289 0.804671 -1.104642
v 0.000000 0.929077 -1.104642
v 0.348217 0.603628 -1.492013
v 0.000000 0.696932 -1.492013
v 0.603129 0.348716 -1.492013
v 0.696433 0.000499 -1.492013
v 0.603129 -0.347717 -1.492013
v 0.348217 -0.602630 -1.492013
v 0.000000 -0.695934 -1.492013
v 1.449285 0.677240 0.501949
v 1.630618 0.000498 0.501949
v 1.545861 0.732999 0.002987
v 1.449285 0.677241 -0.495974
v 1.630618 0.000499 -0.495975
v 1.353484 0.000499 -0.557644
v 1.449285 -0.676243 -0.495975
v 1.545861 -0.732001 0.002987
v 1.449285 -0.676243 0.501949
v 1.462367 -0.615336 -0.359237
v 1.550252 -0.666076 0.002987
v 1.627380 0.000499 -0.359237
v 1.462367 -0.615337 0.365211
v 1.627380 0.000498 0.365211
v 1.550252 0.667074 0.002987
v 1.462367 0.616334 -0.359236
v 1.462367 0.616333 0.365211
v 2.448965 -0.433665 -0.144963
v 2.448965 -0.469436 0.002987
v 2.448965 -0.433666 0.150938
v 2.448965 0.470434 0.002987
v 2.448965 0.434663 -0.144963
v 2.448965 0.434662 0.150938
v -0.280315 0.486019 1.356471
v -0.485521 0.280813 1.356471
v -0.560631 0.000498 1.356471
v -0.485521 -0.279818 1.356471
v -0.280315 -0.485023 1.356470
v -0.517955 0.897623 1.038899
v -0.897125 0.518453 1.038899
v -1.035911 0.000498 1.038899
v -0.897125 -0.517458 1.038898
v -0.517955 -0.896628 1.038898
v -0.676742 1.172649 0.563619
v -1.172151 0.677240 0.563619
v -1.353482 0.000498 0.563618
v -1.172151 -0.676244 0.563618
v -0.676742 -1.171653 0.563618
v -0.732500 1.225276 0.002987
v -1.268727 0.732999 0.002987
v -1.268727 -0.732001 0.002987
v -0.732500 -1.268228 0.002987
v -0.676742 1.172650 -0.557644
v -1.172151 0.677241 -0.557644
v -1.172151 -0.676243 -0.557644
v -0.676742 -1.171652 -0.557644
v -0.517955 0.897625 -1.032924
v -0.897125 0.518455 -1.032924
v -1.035911 0.000499 -1.032924
v -1.353482 0.000499 -0.557644
v -0.897125 -0.517457 -1.032924
v -0.517955 -0.896626 -1.032924
v -0.280315 1.282166 0.488508
v -0.485521 1.282167 0.283303
v -0.560631 1.282167 0.002987
v -0.485521 1.282167 -0.277328
v -0.280315 1.282167 -0.482533
v -0.804172 0.464788 -1.104642
v -0.928578 0.000499 -1.104642
v -0.804172 -0.463790 -1.104642
v -0.464288 -0.803673 -1.104642
v -0.464288 0.804671 -1.104642
v -0.348217 0.603628 -1.492013
v -0.603129 0.348716 -1.492013
v -0.696433 0.000499 -1.492013
v -0.603129 -0.347717 -1.492013
v -0.348217 -0.602630 -1.492013
v -1.449285 0.677240 0.501949
v -1.630617 0.000498 0.501949
v -1.545861 0.732999 0.002987
v -1.449285 0.677241 -0.495974
v -1.630617 0.000499 -0.495975
v -1.449285 -0.676243 -0.495975
v -1.545861 -0.732001 0.002987
v -1.449285 -0.676243 0.501949
v -1.550252 -0.666076 0.002987
v -1.462367 -0.615336 -0.359237
v -1.627379 0.000499 -0.359237
v -1.462367 -0.615337 0.365211
v -1.627379 0.000498 0.365211
v -1.462367 0.616334 -0.359236
v -1.550252 0.667074 0.002987
v -1.462367 0.616333 0.365211
v -2.448965 -0.469436 0.002987
v -2.448965 -0.433665 -0.144963
v -2.448965 -0.433666 0.150938
v -2.448965 0.434663 -0.144963
v -2.448965 0.470434 0.002987
v -2.448965 0.434662 0.150938
v 0.000000 0.623428 -1.492013
v -0.311464 0.539971 -1.492013
v 0.311465 0.539971 -1.492013
v 0.539472 0.311964 -1.492013
v 0.622929 0.000499 -1.492013
v 0.539472 -0.310965 -1.492013
v 0.311465 -0.538973 -1.492013
v 0.000000 -0.622429 -1.492013
v -0.311464 -0.538973 -1.492013
v -0.539472 -0.310965 -1.492013
v -0.622928 0.000499 -1.492013
v -0.539472 0.311964 -1.492013
v -0.401111 0.232081 -1.392013
v -0.463163 0.000499 -1.392013
v -0.231580 0.401610 -1.392013
v 0.000000 0.463662 -1.392013
v 0.231582 0.401610 -1.392013
v 0.401111 0.232081 -1.392013
v 0.463164 0.000499 -1.392013
v 0.401111 -0.231082 -1.392013
v 0.231582 -0.400612 -1.392013
v 0.000000 -0.462664 -1.392013
v -0.231580 -0.400612 -1.392013
v -0.401111 -0.231082 -1.392013
v -3.733600 0.249782 1.193781
v -3.733600 4.877999 -2.514992
v -3.733600 4.877995 2.520978
v -3.733600 1.260640 -0.388125
v -3.642400 4.682898 2.791753
v -3.733600 1.260639 0.394100
v -3.733600 0.249784 -1.187806
v -3.642400 4.682900 -2.785767
v -3.733600 -4.877007 2.520967
v -3.733600 -4.876997 -2.515004
v -3.642400 -4.681901 -2.785778
v -3.642400 -0.146781 -3.946806
v -3.733600 0.000493 4.102987
v -3.733600 -5.024502 2.843139
v -3.733600 -1.259642 -0.388125
v -3.733600 0.000504 -4.097013
v -3.733600 -5.024498 -2.837175
v -3.733600 -1.259644 0.394099
v -3.642400 0.000504 -4.097013
v -3.642400 -5.024498 -2.837175
v 3.733600 -5.024498 -2.837175
v 3.733600 0.000504 -4.097013
v 3.733600 0.000493 4.102987
v 3.733600 -5.024502 2.843139
v 3.733600 -4.876997 -2.515004
v 3.733600 -4.877007 2.520967
v 3.642400 -0.146781 -3.946806
v 3.733600 -1.259642 -0.388125
v 3.733600 -1.259644 0.394099
v 3.642400 -4.681901 -2.785778
v 3.642400 0.000504 -4.097013
v 3.642400 -5.024498 -2.837175
v 3.733600 4.877999 -2.514992
v 3.733600 4.877995 2.520978
v 3.642400 4.682898 2.791753
v 3.642400 4.682900 -2.785767
v 3.733600 0.249784 -1.187806
v 3.733600 1.260640 -0.388125
v 3.733600 1.260639 0.394100
v 3.733600 0.249782 1.193781
s off
f 5 6 7 8
f 9 10 11 12
f 10 13 14 11
f 15 16 17 18
f 15 18 20 21
f 22 23 24 25 26 27 28 29 30 31 32 33
f 25 34 35 26
f 26 35 36 27
f 27 36 37 28
f 28 37 38 29
f 29 38 39 30
f 30 39 40 31
f 31 40 41 32
f 33 32 41 42
f 33 42 43 22
f 22 43 44 23
f 23 44 45 24
f 24 45 34 25
f 113 190 203 180 179 214 206 148 116 115 201 202 114
f 295 296 297 309 308 307 306 305 304 303 302 301 300 299 298 286 287 288 289 290 291 292 293 294
f 640 641 646 184 185 187 647 648 645 644 213 210
f 56 57 39 38
f 58 59 47 46
f 60 48 47 59
f 60 61 49 48
f 61 62 50 49
f 62 63 51 50
f 63 64 52 51
f 64 65 53 52
f 65 66 54 53
f 66 67 55 54
f 67 68 56 55
f 68 69 57 56
f 69 58 46 57
f 323 402 384 385 398 383 382 324
f 82 83 71 70
f 83 84 72 71
f 73 72 84 85
f 85 86 74 73
f 86 87 75 74
f 87 88 76 75
f 88 89 77 76
f 89 90 78 77
f 90 91 79 78
f 91 92 80 79
f 92 93 81 80
f 93 82 70 81
f 125 156 163 162 177 178 165 146 149 214 179 180 126 119 120 190 113 151 191 6 5 19 21 121 16 15 94 127 124
f 99 96 95 100
f 101 98 97 102
f 440 407 408 389 661 658 662 663 458 455 456 457
f 103 104 102 97
f 105 106 96 99
f 107 108 109 110
f 113 114 115 116 117 118
f 120 119 123 122
f 107 128 129 108
f 111 130 128 107
f 131 132 133 134
f 135 136 137 138 139 140
f 539 541 538 537 536 540
f 131 134 142 143
f 115 114 144 145
f 146 147 117 116 148 149
f 150 19 5 151 113 118
f 153 152 154 155
f 127 156 157 158
f 19 150 159 94 15 21
f 148 160 161 149
f 162 163 164 147 146 165
f 163 156 127 94 159 164
f 147 166 152 117
f 166 167 154 152
f 111 112 171 9 172 173
f 168 153 155 174
f 110 109 133 132
f 128 143 142 129
f 168 174 175 169
f 170 169 175 176
f 166 170 176 167
f 162 181 182 177
f 183 184 185 186
f 186 185 187 188
f 126 189 123 119
f 151 192 193 191
f 194 195 196 197
f 197 196 198 199
f 115 145 200 201
f 190 205 204 203
f 348 347 369 368 361 349 339 360 372 362 365 340
f 165 178 207 208
f 137 209 210 211
f 209 212 213 210
f 180 203 204 215
f 189 126 180 215
f 122 205 190 120
f 218 188 187 219
f 212 138 220 213
f 172 13 10 9 171 223 224 226 205 122 123 189 229 183 186 188 218 173
f 171 112 141 221 222 223
f 194 221 141 140 139 225
f 227 228 136 135 130 229
f 53 54 55 56 38 37 36 35 34 45 44 43 42 41 40 39 57 46 47 48 49 50 51 52
f 136 228 216 217 227 229 189 215 204 205 226 222 221 194 197 199 225 139 138 212 209 137
f 183 229 130 111 173 218
f 150 118 117 152 153 168 169 170 166 147 164 159
f 177 182 207 178
f 6 191 193 7
f 230 231 232 233
f 234 235 236 237
f 238 239 240 241
f 241 240 242 243
f 244 245 246 1
f 244 248 249 245
f 250 251 252 253 254 255 256 257 258 259 260 261
f 259 258 262 263
f 258 257 264 262
f 257 256 265 264
f 256 255 266 265
f 255 254 267 266
f 254 253 268 267
f 253 252 269 268
f 251 270 269 252
f 251 250 271 270
f 250 261 272 271
f 261 260 273 272
f 260 259 263 273
f 80 81 70 58 69 68 67 66 65 64 63 62 74 75 76 77 78 79
f 283 282 281 280 279 278 277 276 275 274 285 267 268 269 270 271 272 273 263 262 264 265 266 284
f 284 266 267 285
f 286 274 275 287
f 288 287 275 276
f 288 276 277 289
f 289 277 278 290
f 290 278 279 291
f 291 279 280 292
f 292 280 281 293
f 293 281 282 294
f 294 282 283 295
f 295 283 284 296
f 296 284 285 297
f 297 285 274 286
f 71 72 73 74 62 61 60 59 58 70
f 298 309 297 286
f 310 298 299 311
f 311 299 300 312
f 301 313 312 300
f 313 301 302 314
f 314 302 303 315
f 315 303 304 316
f 316 304 305 317
f 317 305 306 318
f 318 306 307 319
f 319 307 308 320
f 320 308 309 321
f 321 309 298 310
f 518 585 584 583 582 619 618 617 616 615 614 613 612 611 610 608 609 581 513 512 514 515 516 517
f 234 247 323 324 325 326
f 331 332 327 330
f 333 334 329 328
f 102 104 105 99 100 101
f 335 329 334 336
f 337 331 330 338
f 339 340 341 342
f 343 344 345 346 347 348
f 349 348 340 339
f 3 355 356 4
f 339 342 359 360
f 362 363 364 365
f 366 367 368 369 370 371
f 362 372 373 363
f 602 604 607 606 605 603
f 374 375 376 377
f 378 379 380 381 382 383
f 384 386 387 385
f 357 388 389 390
f 247 248 244 322 391 323
f 380 379 392 393
f 394 395 396 397 378 383
f 395 394 391 322 357 390
f 356 355 343 238 241 243 452 453 446 413 410 409 451 450 444 419
f 398 385 387 399
f 108 129 142 134 133 109
f 402 403 386 384
f 340 365 364 341
f 360 359 373 372
f 402 401 404 403
f 400 405 404 401
f 398 399 405 400
f 396 406 407 408
f 409 410 411 412
f 410 413 414 411
f 416 4 356 419
f 326 350 421 422
f 423 424 425 426
f 424 427 428 425
f 374 429 430 375
f 3 4 416 415 420 358 357 322 244 1 2 248 247 234 237 350 351
f 325 324 382 381 374 377
f 351 432 431 352
f 397 439 440 418
f 366 441 442 436
f 436 442 443 437
f 417 435 431 432
f 419 435 417 416
f 355 3 351 352
f 446 447 414 413
f 437 443 448 371
f 361 368 367 449 450 451
f 452 238 343 348 349 453
f 110 132 131 143 128 130 135 140 141 112 111 107
f 347 346 423 454 370 369
f 363 373 359 342 341 364
f 361 451 409 446 453 349
f 424 423 346 345 353 354 344 343 355 352 431 435 419 444 445 449 367 366 436 437 371 370 454 427
f 406 418 440 407
f 237 236 421 350
f 329 335 338 330 327 328
f 459 460 461
f 461 460 462
f 462 460 463
f 463 460 464
f 464 460 465
f 465 460 466
f 467 468 459 461
f 469 467 461 462
f 469 462 463 470
f 471 470 463 464
f 471 464 465 472
f 472 465 466 473
f 573 574 561 557
f 475 467 469 476
f 476 469 470 477
f 477 470 471 478
f 478 471 472 479
f 479 472 473 480
f 481 475 476 482
f 483 478 479 484
f 484 479 480 485
f 481 482 486 487
f 483 484 488 489
f 484 485 490 488
f 561 575 491 493 565
f 487 486 494 492
f 489 488 495 496
f 488 490 497 495
f 474 498 499
f 498 500 499
f 500 501 499
f 501 502 499
f 502 503 499
f 503 491 499
f 487 503 502
f 601 607 604 597 598
f 498 475 500
f 552 572 573 557
f 504 505 506 494
f 504 496 507 505
f 495 508 507 496
f 495 497 509 508
f 493 492 510 511
f 494 506 510 492
f 511 510 512 513
f 510 506 514 512
f 506 505 515 514
f 505 507 516 515
f 507 508 517 516
f 508 509 518 517
f 519 476 477 520
f 482 476 519 521
f 482 521 522 486
f 522 523 524 486
f 524 523 525 489
f 483 489 525 526
f 483 526 527 478
f 477 478 527 520
f 525 528 529 526
f 525 523 530 528
f 527 526 529 531
f 520 527 531 532
f 522 521 533 534
f 523 522 534 530
f 519 535 533 521
f 519 520 532 535
f 528 536 537 529
f 531 529 537 538
f 599 596 595 603 605
f 534 533 539 540
f 535 541 539 533
f 397 418 406 396 395 390 420 415 416 417 432 351 350 326 325 377 433 429 374 381 380 434 438 379 378
f 459 542 460
f 542 543 460
f 543 544 460
f 544 545 460
f 545 546 460
f 546 466 460
f 547 542 459 468
f 548 543 542 547
f 548 549 544 543
f 550 545 544 549
f 550 551 546 545
f 551 473 466 546
f 491 503 487 492 493
f 552 553 548 547
f 553 554 549 548
f 554 555 550 549
f 555 556 551 550
f 556 480 473 551
f 557 558 553 552
f 559 560 556 555
f 560 485 480 556
f 557 561 562 558
f 559 563 564 560
f 560 564 490 485
f 475 498 474 468 467
f 561 565 566 562
f 562 566 567 568
f 568 567 569 563
f 563 569 570 564
f 564 570 497 490
f 474 499 571
f 571 499 572
f 572 499 573
f 573 499 574
f 574 499 575
f 575 499 491
f 567 566 576 577
f 567 577 578 569
f 570 569 578 579
f 570 579 509 497
f 493 511 580 565
f 566 565 580 576
f 511 513 581 580
f 580 581 582 576
f 576 582 583 577
f 577 583 584 578
f 578 584 585 579
f 579 585 518 509
f 586 587 554 553
f 558 588 586 553
f 558 562 589 588
f 589 562 568 590
f 568 563 591 590
f 559 592 591 563
f 559 555 593 592
f 554 587 593 555
f 591 592 594 595
f 591 595 596 590
f 593 597 594 592
f 587 598 597 593
f 589 599 600 588
f 590 596 599 589
f 586 588 600 601
f 586 601 598 587
f 595 594 602 603
f 534 540 536 528 530
f 597 604 602 594
f 535 532 531 538 541
f 599 605 606 600
f 601 600 606 607
f 561 574 575
f 501 500 475 481
f 571 572 552
f 487 502 501 481
f 394 383 398 400 401 402 323 391
f 96 106 103 97 98 95
f 331 337 336 334 333 332
f 474 571 552 547 468
f 582 581 609 619
f 619 620 621 618
f 609 622 620 619
f 608 623 622 609
f 608 610 624 623
f 610 611 625 624
f 611 612 626 625
f 613 627 626 612
f 613 614 628 627
f 615 629 628 614
f 615 616 630 629
f 617 631 630 616
f 617 618 621 631
f 622 623 624 625 626 627 628 629 630 631 621 620
f 524 489 496 504
f 486 524 504 494
f 632 195 194 225
f 633 634 226 224
f 635 633 224 223
f 198 196 636 200
f 634 637 222 226
f 196 195 144 636
f 198 632 225 199
f 12 638 172 9
f 12 11 639 20
f 11 14 17 639
f 638 14 13 172
f 640 641 217 216
f 219 184 183 218
f 187 185 642 643
f 210 213 233 232
f 213 220 160 233
f 211 210 232 161
f 211 220 138 137
f 649 640 216 228
f 185 184 157 642
f 641 646 227 217
f 219 187 643 158
f 145 144 195 632
f 7 193 634 633
f 8 7 633 635
f 193 192 637 634
f 200 145 632 198
f 20 18 638 12
f 20 639 121 21
f 639 17 16 121
f 636 144 114 202
f 200 636 202 201
f 18 17 14 638
f 650 643 642 651
f 233 160 148 206
f 207 182 641 640
f 158 157 184 219
f 158 643 124 127
f 643 642 125 124
f 208 207 640 649
f 232 233 206 214
f 161 160 220 211
f 642 157 156 125
f 182 181 646 641
f 161 232 214 149
f 414 411 652 653
f 442 443 654 655
f 656 657 445 444
f 443 442 457 456
f 414 447 388 658
f 412 447 446 409
f 659 656 444 450
f 657 660 449 445
f 448 441 366 371
f 448 443 456 393
f 442 441 392 457
f 412 411 661 389
f 411 414 658 661
f 658 388 357 358
f 407 440 657 656
f 456 457 438 434
f 661 658 358 420
f 393 456 434 380
f 389 388 447 412
f 408 407 656 659
f 440 439 660 657
f 389 661 420 390
f 457 392 379 438
f 393 392 441 448
f 421 236 664 665
f 666 430 429 433
f 246 667 2 1
f 245 249 239 668
f 236 235 669 664
f 422 421 665 670
f 667 249 248 2
f 246 245 668 242
f 376 666 433 377
f 375 430 428 671
f 376 375 671 426
f 665 664 354 353
f 426 671 454 423
f 425 428 430 666
f 242 668 452 243
f 670 665 353 345
f 668 239 238 452
f 242 240 667 246
f 671 428 427 454
f 240 239 249 667
f 426 425 666 376
f 664 669 344 354
f 345 344 669 670
f 326 422 235 234
f 5 8 192 151
f 649 228 227 646
f 181 162 165 208
f 641 640 649 646
f 211 210 213 220
f 184 219 187 185
f 14 638 12 11
f 635 223 222 637
f 633 635 637 634
f 196 195 632 198
f 192 8 7 193
f 639 20 18 17
f 145 144 636 200
f 160 233 232 161
f 181 208 207 182
f 157 642 643 158
f 450 449 660 659
f 397 396 408 439
f 659 660 657 656
f 441 448 443 442
f 412 411 414 447
f 392 457 456 393
f 389 388 658 661
f 407 440 439 408
f 375 430 666 376
f 235 422 421 236
f 245 249 667 246
f 239 668 242 240
f 669 664 665 670
f 428 671 426 425
