# Blender v2.79 (sub 0) OBJ File: ''
# www.blender.org
v 2.658140 0.000000 6.959101
v 4.300961 4.300961 4.300961
v -2.658140 0.000000 6.959101
v 0.000000 6.959101 2.658140
v -4.300961 4.300961 4.300961
v -4.300961 -4.300961 4.300961
v 0.000000 -6.959101 2.658140
v 4.300961 -4.300961 4.300961
v 6.959101 -2.658140 0.000000
v 6.959101 2.658140 0.000000
v 0.000000 -6.959101 -2.658140
v 4.300961 -4.300961 -4.300961
v 0.000000 6.959101 -2.658140
v 4.300961 4.300961 -4.300961
v -2.658140 0.000000 -6.959101
v 2.658140 0.000000 -6.959101
v -4.300961 -4.300961 -4.300961
v -6.959101 -2.658140 0.000000
v -6.959101 2.658140 0.000000
v -4.300961 4.300961 -4.300961
s off
f 10 9 12 16 14
f 6 3 5 19 18
f 1 3 6 7 8
f 9 10 2 1 8
f 2 4 5 3 1
f 2 10 14 13 4
f 7 11 12 9 8
f 12 11 17 15 16
f 16 15 20 13 14
f 19 20 15 17 18
f 13 20 19 5 4
f 6 18 17 11 7
