# Blender v2.79 (sub 0) OBJ File: ''
# www.blender.org
v 0.000000 -0.029377 0.845788
v 0.000000 -0.813380 0.422894
v 0.410283 -0.708344 0.366237
v 0.445669 -0.029377 0.732474
v -0.410283 0.649590 0.366237
v -0.771921 0.293315 0.157576
v -0.771921 -0.029377 0.315151
v -0.445668 -0.029377 0.732474
v -0.410283 -0.708344 0.366237
v -0.771921 -0.352068 0.157575
v -0.771921 -0.352068 -0.157575
v -0.410283 -0.708344 -0.366237
v 0.000000 -0.813380 -0.422894
v -0.445669 -0.033556 -0.609934
v -0.771921 -0.029377 -0.315151
v -0.410283 0.649590 -0.366237
v 0.000000 0.754627 -0.422894
v -0.771921 0.293315 -0.157575
v -1.378464 -0.029377 0.152215
v -1.378464 0.126480 0.076108
v -1.945024 0.126480 0.076108
v -1.378464 -0.029377 -0.152215
v -1.378464 -0.185234 -0.076108
v -1.945024 -0.185234 -0.076107
v -1.378464 -0.185234 0.076108
v -1.945024 -0.185234 0.076108
v -1.378464 0.126481 -0.076107
v -1.945024 0.126480 -0.076107
v -1.945024 -0.029377 -0.274647
v 0.000000 0.754626 0.422894
v -1.945024 -0.029377 0.274647
v -1.945024 -0.029377 0.274647
v -1.945024 -0.029377 -0.274647
v -1.945024 0.126480 -0.076107
v -1.945024 -0.185234 0.076108
v 1.933699 -0.039435 0.275173
v 1.933699 -0.039434 -0.274122
v 1.933699 0.116423 -0.075582
v 0.410283 0.649590 0.366237
v 0.771921 -0.029377 0.315151
v 0.771921 0.293315 0.157575
v 0.771921 -0.352068 0.157575
v 0.410283 -0.708343 -0.366237
v 0.771921 -0.352068 -0.157576
v 0.440854 -0.031473 -0.599627
v 0.771921 -0.029377 -0.315151
v 0.410283 0.649590 -0.366237
v 0.771921 0.293315 -0.157575
v 1.378464 -0.029377 0.152215
v 1.945024 0.126481 0.076107
v 1.378464 0.126481 0.076107
v 1.378464 -0.029377 -0.152215
v 1.945024 -0.185234 -0.076108
v 1.378464 -0.185234 -0.076108
v 1.945024 -0.185234 0.076107
v 1.378464 -0.185234 0.076107
v 1.945024 0.126481 -0.076108
v 1.378464 0.126481 -0.076108
v 1.945024 -0.029376 -0.274648
v 1.945024 -0.029377 0.274647
v 1.933699 -0.195292 0.076633
v -1.945024 -0.185234 -0.076107
v -1.945024 0.126480 0.076108
v 1.933699 -0.195292 -0.075582
v 1.933699 0.116423 0.076633
v 1.944056 -0.029377 2.140914
v 1.944056 2.548638 1.336248
v 1.944055 -0.029375 -2.140914
v 1.944056 -2.607393 1.336246
v 1.944055 2.548639 -1.336248
v 1.944056 -2.607391 -1.336250
v -1.944055 -0.029377 2.140915
v -1.944055 -2.607394 1.336248
v -1.944056 2.548639 -1.336247
v -1.944056 2.548638 1.336249
v -1.944056 -2.607392 -1.336249
v -1.944056 -0.029375 -2.140913
v -1.944055 -0.029377 2.140915
v -1.944055 -2.607394 1.336248
v -1.944056 2.548639 -1.336247
v -1.944056 2.548638 1.336249
v -1.944056 -2.607392 -1.336249
v -1.944056 -0.029375 -2.140913
v 1.932731 -0.039435 2.141440
v 1.932731 2.538580 1.336774
v 1.932730 -0.039433 -2.140388
v 1.932731 -2.617451 1.336772
v 1.932730 2.538581 -1.335722
v 1.932731 -2.617449 -1.335725
v 0.000000 0.494121 -0.563412
v 0.430370 -0.322917 -0.574137
v -0.436268 0.228681 -0.635178
v 0.433690 0.298295 -0.608505
v 0.000000 -0.504228 -0.589652
v -0.430104 -0.328027 -0.571381
v 0.283745 0.156152 -0.689361
v -0.000327 0.285643 -0.692172
v -0.320039 0.122277 -0.704978
v -0.313332 -0.230347 -0.664472
v -0.005111 -0.354450 -0.661537
v 0.290285 -0.239520 -0.664711
v -0.436009 0.232934 -0.632498
v -0.433716 0.274952 -0.634758
s off
f 1 2 3 4
f 5 6 7 8
f 1 8 9 2
f 8 7 10 9
f 9 10 11 12
f 2 9 12 13
f 13 12 95 94
f 12 11 15 14 95
f 14 15 18 16 102 92
f 19 20 21
f 22 23 24
f 23 25 26 24
f 20 27 28 21
f 22 29 28
f 17 16 5 30
f 19 31 26
f 16 18 6 5
f 7 6 20 19
f 10 7 19 25
f 11 10 25 23
f 18 15 22 27
f 15 11 23 22
f 6 18 27 20
f 83 82 62 33
f 27 22 28
f 31 19 21
f 29 22 24
f 25 19 26
f 39 4 40 41
f 1 30 5 8
f 4 3 42 40
f 1 4 39 30
f 3 43 44 42
f 2 13 43 3
f 13 94 91 43
f 43 91 45 46 44
f 45 93 47 48 46
f 49 50 51
f 52 53 54
f 54 53 55 56
f 51 50 57 58
f 52 57 59
f 17 30 39 47
f 49 55 60
f 47 39 41 48
f 40 49 51 41
f 42 56 49 40
f 44 54 56 42
f 48 58 52 46
f 46 52 54 44
f 41 51 58 48
f 84 36 61 87
f 58 57 52
f 60 50 49
f 59 53 52
f 56 55 49
f 89 87 61 64
f 62 82 79 35
f 24 26 31 21 28 29
f 77 29 24 76
f 24 26 73 76
f 26 73 72 31
f 75 21 31 72
f 21 75 74 28
f 28 74 77 29
f 35 32 78 79
f 81 78 32 63
f 63 34 80 81
f 34 33 83 80
f 53 59 57 50 60 55
f 66 69 55 60
f 71 53 55 69
f 53 71 68 59
f 70 57 59 68
f 67 50 57 70
f 50 67 66 60
f 64 37 86 89
f 88 86 37 38
f 85 88 38 65
f 65 36 84 85
f 93 90 17 47
f 45 91 101 96 93
f 90 103 102 16 17
f 93 96 97 90
f 98 97 96 101 100 99
f 101 91 94 100
f 100 94 95 99
f 103 98 99 95 14 92
f 102 103 92
f 90 97 98 103
